G04 #@! TF.GenerationSoftware,KiCad,Pcbnew,(5.1.6)-1*
G04 #@! TF.CreationDate,2020-08-24T22:25:31-04:00*
G04 #@! TF.ProjectId,usbanana,75736261-6e61-46e6-912e-6b696361645f,1*
G04 #@! TF.SameCoordinates,Original*
G04 #@! TF.FileFunction,Copper,L2,Bot*
G04 #@! TF.FilePolarity,Positive*
%FSLAX46Y46*%
G04 Gerber Fmt 4.6, Leading zero omitted, Abs format (unit mm)*
G04 Created by KiCad (PCBNEW (5.1.6)-1) date 2020-08-24 22:25:31*
%MOMM*%
%LPD*%
G01*
G04 APERTURE LIST*
G04 #@! TA.AperFunction,ComponentPad*
%ADD10O,16.100000X7.000000*%
G04 #@! TD*
G04 #@! TA.AperFunction,ComponentPad*
%ADD11C,7.000000*%
G04 #@! TD*
G04 #@! TA.AperFunction,ComponentPad*
%ADD12O,1.600000X1.600000*%
G04 #@! TD*
G04 #@! TA.AperFunction,ComponentPad*
%ADD13C,1.600000*%
G04 #@! TD*
G04 #@! TA.AperFunction,ComponentPad*
%ADD14O,2.900000X1.900000*%
G04 #@! TD*
G04 #@! TA.AperFunction,ComponentPad*
%ADD15O,1.900000X2.900000*%
G04 #@! TD*
G04 #@! TA.AperFunction,ComponentPad*
%ADD16C,1.300000*%
G04 #@! TD*
G04 #@! TA.AperFunction,ComponentPad*
%ADD17R,1.300000X1.300000*%
G04 #@! TD*
G04 #@! TA.AperFunction,Conductor*
%ADD18C,2.000000*%
G04 #@! TD*
G04 #@! TA.AperFunction,Conductor*
%ADD19C,0.200000*%
G04 #@! TD*
G04 #@! TA.AperFunction,Conductor*
%ADD20C,0.025400*%
G04 #@! TD*
G04 APERTURE END LIST*
D10*
X150500000Y-94000000D03*
D11*
X126500000Y-94000000D03*
D12*
X143580000Y-101000000D03*
D13*
X133420000Y-101000000D03*
D14*
X138500000Y-114780000D03*
D15*
X131930000Y-110600000D03*
X145070000Y-110600000D03*
D16*
X135000000Y-110000000D03*
X137500000Y-110000000D03*
X139500000Y-110000000D03*
D17*
X142000000Y-110000000D03*
D18*
X126500000Y-99750000D02*
X135000000Y-108250000D01*
X126500000Y-95500000D02*
X126500000Y-99750000D01*
X135000000Y-108250000D02*
X135000000Y-110000000D01*
D19*
X137500000Y-106500000D02*
X137500000Y-110000000D01*
X133420000Y-101000000D02*
X133420000Y-102420000D01*
X133420000Y-102420000D02*
X137500000Y-106500000D01*
X143580000Y-101000000D02*
X143580000Y-102420000D01*
X139500000Y-106500000D02*
X139500000Y-110000000D01*
X143580000Y-102420000D02*
X139500000Y-106500000D01*
D18*
X142000000Y-108250000D02*
X142000000Y-110000000D01*
X150500000Y-99750000D02*
X142000000Y-108250000D01*
X150500000Y-95500000D02*
X150500000Y-99750000D01*
D20*
G36*
X137590857Y-108774086D02*
G01*
X137590923Y-108775013D01*
X137601573Y-108873113D01*
X137601716Y-108874081D01*
X137619466Y-108968826D01*
X137619694Y-108969819D01*
X137644544Y-109061211D01*
X137644861Y-109062211D01*
X137676811Y-109150250D01*
X137677216Y-109151236D01*
X137716266Y-109235921D01*
X137716753Y-109236871D01*
X137762903Y-109318202D01*
X137763461Y-109319096D01*
X137816711Y-109397074D01*
X137817324Y-109397898D01*
X137877674Y-109472523D01*
X137878325Y-109473267D01*
X137939271Y-109537664D01*
X137500000Y-110299574D01*
X137060729Y-109537664D01*
X137121674Y-109473267D01*
X137122325Y-109472523D01*
X137182675Y-109397898D01*
X137183288Y-109397074D01*
X137236538Y-109319096D01*
X137237096Y-109318202D01*
X137283246Y-109236871D01*
X137283733Y-109235921D01*
X137322783Y-109151236D01*
X137323188Y-109150250D01*
X137355138Y-109062211D01*
X137355455Y-109061211D01*
X137380305Y-108969819D01*
X137380533Y-108968826D01*
X137398283Y-108874081D01*
X137398426Y-108873113D01*
X137409076Y-108775013D01*
X137409142Y-108774086D01*
X137412264Y-108684890D01*
X137587736Y-108684890D01*
X137590857Y-108774086D01*
G37*
X137590857Y-108774086D02*
X137590923Y-108775013D01*
X137601573Y-108873113D01*
X137601716Y-108874081D01*
X137619466Y-108968826D01*
X137619694Y-108969819D01*
X137644544Y-109061211D01*
X137644861Y-109062211D01*
X137676811Y-109150250D01*
X137677216Y-109151236D01*
X137716266Y-109235921D01*
X137716753Y-109236871D01*
X137762903Y-109318202D01*
X137763461Y-109319096D01*
X137816711Y-109397074D01*
X137817324Y-109397898D01*
X137877674Y-109472523D01*
X137878325Y-109473267D01*
X137939271Y-109537664D01*
X137500000Y-110299574D01*
X137060729Y-109537664D01*
X137121674Y-109473267D01*
X137122325Y-109472523D01*
X137182675Y-109397898D01*
X137183288Y-109397074D01*
X137236538Y-109319096D01*
X137237096Y-109318202D01*
X137283246Y-109236871D01*
X137283733Y-109235921D01*
X137322783Y-109151236D01*
X137323188Y-109150250D01*
X137355138Y-109062211D01*
X137355455Y-109061211D01*
X137380305Y-108969819D01*
X137380533Y-108968826D01*
X137398283Y-108874081D01*
X137398426Y-108873113D01*
X137409076Y-108775013D01*
X137409142Y-108774086D01*
X137412264Y-108684890D01*
X137587736Y-108684890D01*
X137590857Y-108774086D01*
G36*
X133964197Y-101569330D02*
G01*
X133883506Y-101652095D01*
X133883078Y-101652556D01*
X133804878Y-101741141D01*
X133804426Y-101741683D01*
X133735426Y-101829206D01*
X133734954Y-101829845D01*
X133675154Y-101916306D01*
X133674673Y-101917056D01*
X133624073Y-102002456D01*
X133623598Y-102003334D01*
X133582198Y-102087672D01*
X133581754Y-102088688D01*
X133549554Y-102171963D01*
X133549169Y-102173121D01*
X133526169Y-102255335D01*
X133525879Y-102256628D01*
X133512079Y-102337780D01*
X133511920Y-102339181D01*
X133508008Y-102407300D01*
X133331992Y-102407300D01*
X133328079Y-102339181D01*
X133327920Y-102337780D01*
X133314120Y-102256628D01*
X133313830Y-102255335D01*
X133290830Y-102173121D01*
X133290445Y-102171963D01*
X133258245Y-102088688D01*
X133257801Y-102087672D01*
X133216401Y-102003334D01*
X133215926Y-102002456D01*
X133165326Y-101917056D01*
X133164845Y-101916306D01*
X133105045Y-101829845D01*
X133104573Y-101829206D01*
X133035573Y-101741683D01*
X133035121Y-101741141D01*
X132956921Y-101652556D01*
X132956493Y-101652095D01*
X132875803Y-101569330D01*
X133420000Y-100625426D01*
X133964197Y-101569330D01*
G37*
X133964197Y-101569330D02*
X133883506Y-101652095D01*
X133883078Y-101652556D01*
X133804878Y-101741141D01*
X133804426Y-101741683D01*
X133735426Y-101829206D01*
X133734954Y-101829845D01*
X133675154Y-101916306D01*
X133674673Y-101917056D01*
X133624073Y-102002456D01*
X133623598Y-102003334D01*
X133582198Y-102087672D01*
X133581754Y-102088688D01*
X133549554Y-102171963D01*
X133549169Y-102173121D01*
X133526169Y-102255335D01*
X133525879Y-102256628D01*
X133512079Y-102337780D01*
X133511920Y-102339181D01*
X133508008Y-102407300D01*
X133331992Y-102407300D01*
X133328079Y-102339181D01*
X133327920Y-102337780D01*
X133314120Y-102256628D01*
X133313830Y-102255335D01*
X133290830Y-102173121D01*
X133290445Y-102171963D01*
X133258245Y-102088688D01*
X133257801Y-102087672D01*
X133216401Y-102003334D01*
X133215926Y-102002456D01*
X133165326Y-101917056D01*
X133164845Y-101916306D01*
X133105045Y-101829845D01*
X133104573Y-101829206D01*
X133035573Y-101741683D01*
X133035121Y-101741141D01*
X132956921Y-101652556D01*
X132956493Y-101652095D01*
X132875803Y-101569330D01*
X133420000Y-100625426D01*
X133964197Y-101569330D01*
G36*
X144124197Y-101569330D02*
G01*
X144043506Y-101652095D01*
X144043078Y-101652556D01*
X143964878Y-101741141D01*
X143964426Y-101741683D01*
X143895426Y-101829206D01*
X143894954Y-101829845D01*
X143835154Y-101916306D01*
X143834673Y-101917056D01*
X143784073Y-102002456D01*
X143783598Y-102003334D01*
X143742198Y-102087672D01*
X143741754Y-102088688D01*
X143709554Y-102171963D01*
X143709169Y-102173121D01*
X143686169Y-102255335D01*
X143685879Y-102256628D01*
X143672079Y-102337780D01*
X143671920Y-102339181D01*
X143668008Y-102407300D01*
X143491992Y-102407300D01*
X143488079Y-102339181D01*
X143487920Y-102337780D01*
X143474120Y-102256628D01*
X143473830Y-102255335D01*
X143450830Y-102173121D01*
X143450445Y-102171963D01*
X143418245Y-102088688D01*
X143417801Y-102087672D01*
X143376401Y-102003334D01*
X143375926Y-102002456D01*
X143325326Y-101917056D01*
X143324845Y-101916306D01*
X143265045Y-101829845D01*
X143264573Y-101829206D01*
X143195573Y-101741683D01*
X143195121Y-101741141D01*
X143116921Y-101652556D01*
X143116493Y-101652095D01*
X143035803Y-101569330D01*
X143580000Y-100625426D01*
X144124197Y-101569330D01*
G37*
X144124197Y-101569330D02*
X144043506Y-101652095D01*
X144043078Y-101652556D01*
X143964878Y-101741141D01*
X143964426Y-101741683D01*
X143895426Y-101829206D01*
X143894954Y-101829845D01*
X143835154Y-101916306D01*
X143834673Y-101917056D01*
X143784073Y-102002456D01*
X143783598Y-102003334D01*
X143742198Y-102087672D01*
X143741754Y-102088688D01*
X143709554Y-102171963D01*
X143709169Y-102173121D01*
X143686169Y-102255335D01*
X143685879Y-102256628D01*
X143672079Y-102337780D01*
X143671920Y-102339181D01*
X143668008Y-102407300D01*
X143491992Y-102407300D01*
X143488079Y-102339181D01*
X143487920Y-102337780D01*
X143474120Y-102256628D01*
X143473830Y-102255335D01*
X143450830Y-102173121D01*
X143450445Y-102171963D01*
X143418245Y-102088688D01*
X143417801Y-102087672D01*
X143376401Y-102003334D01*
X143375926Y-102002456D01*
X143325326Y-101917056D01*
X143324845Y-101916306D01*
X143265045Y-101829845D01*
X143264573Y-101829206D01*
X143195573Y-101741683D01*
X143195121Y-101741141D01*
X143116921Y-101652556D01*
X143116493Y-101652095D01*
X143035803Y-101569330D01*
X143580000Y-100625426D01*
X144124197Y-101569330D01*
G36*
X139590857Y-108774086D02*
G01*
X139590923Y-108775013D01*
X139601573Y-108873113D01*
X139601716Y-108874081D01*
X139619466Y-108968826D01*
X139619694Y-108969819D01*
X139644544Y-109061211D01*
X139644861Y-109062211D01*
X139676811Y-109150250D01*
X139677216Y-109151236D01*
X139716266Y-109235921D01*
X139716753Y-109236871D01*
X139762903Y-109318202D01*
X139763461Y-109319096D01*
X139816711Y-109397074D01*
X139817324Y-109397898D01*
X139877674Y-109472523D01*
X139878325Y-109473267D01*
X139939271Y-109537664D01*
X139500000Y-110299574D01*
X139060729Y-109537664D01*
X139121674Y-109473267D01*
X139122325Y-109472523D01*
X139182675Y-109397898D01*
X139183288Y-109397074D01*
X139236538Y-109319096D01*
X139237096Y-109318202D01*
X139283246Y-109236871D01*
X139283733Y-109235921D01*
X139322783Y-109151236D01*
X139323188Y-109150250D01*
X139355138Y-109062211D01*
X139355455Y-109061211D01*
X139380305Y-108969819D01*
X139380533Y-108968826D01*
X139398283Y-108874081D01*
X139398426Y-108873113D01*
X139409076Y-108775013D01*
X139409142Y-108774086D01*
X139412264Y-108684890D01*
X139587736Y-108684890D01*
X139590857Y-108774086D01*
G37*
X139590857Y-108774086D02*
X139590923Y-108775013D01*
X139601573Y-108873113D01*
X139601716Y-108874081D01*
X139619466Y-108968826D01*
X139619694Y-108969819D01*
X139644544Y-109061211D01*
X139644861Y-109062211D01*
X139676811Y-109150250D01*
X139677216Y-109151236D01*
X139716266Y-109235921D01*
X139716753Y-109236871D01*
X139762903Y-109318202D01*
X139763461Y-109319096D01*
X139816711Y-109397074D01*
X139817324Y-109397898D01*
X139877674Y-109472523D01*
X139878325Y-109473267D01*
X139939271Y-109537664D01*
X139500000Y-110299574D01*
X139060729Y-109537664D01*
X139121674Y-109473267D01*
X139122325Y-109472523D01*
X139182675Y-109397898D01*
X139183288Y-109397074D01*
X139236538Y-109319096D01*
X139237096Y-109318202D01*
X139283246Y-109236871D01*
X139283733Y-109235921D01*
X139322783Y-109151236D01*
X139323188Y-109150250D01*
X139355138Y-109062211D01*
X139355455Y-109061211D01*
X139380305Y-108969819D01*
X139380533Y-108968826D01*
X139398283Y-108874081D01*
X139398426Y-108873113D01*
X139409076Y-108775013D01*
X139409142Y-108774086D01*
X139412264Y-108684890D01*
X139587736Y-108684890D01*
X139590857Y-108774086D01*
M02*
