G04 #@! TF.GenerationSoftware,KiCad,Pcbnew,(5.1.6)-1*
G04 #@! TF.CreationDate,2020-08-24T22:25:31-04:00*
G04 #@! TF.ProjectId,usbanana,75736261-6e61-46e6-912e-6b696361645f,1*
G04 #@! TF.SameCoordinates,Original*
G04 #@! TF.FileFunction,Legend,Top*
G04 #@! TF.FilePolarity,Positive*
%FSLAX46Y46*%
G04 Gerber Fmt 4.6, Leading zero omitted, Abs format (unit mm)*
G04 Created by KiCad (PCBNEW (5.1.6)-1) date 2020-08-24 22:25:31*
%MOMM*%
%LPD*%
G01*
G04 APERTURE LIST*
%ADD10C,0.100000*%
%ADD11C,0.200000*%
%ADD12C,0.153000*%
%ADD13C,0.120000*%
%ADD14C,0.150000*%
%ADD15O,16.100000X7.000000*%
%ADD16C,7.000000*%
%ADD17O,1.600000X1.600000*%
%ADD18C,1.600000*%
%ADD19O,2.900000X1.900000*%
%ADD20O,1.900000X2.900000*%
%ADD21C,1.300000*%
%ADD22R,1.300000X1.300000*%
G04 APERTURE END LIST*
D10*
X134766666Y-111616666D02*
X134766666Y-112116666D01*
X134733333Y-112216666D01*
X134666666Y-112283333D01*
X134566666Y-112316666D01*
X134500000Y-112316666D01*
X135433333Y-112316666D02*
X135100000Y-112316666D01*
X135100000Y-111616666D01*
X136066666Y-112250000D02*
X136033333Y-112283333D01*
X135933333Y-112316666D01*
X135866666Y-112316666D01*
X135766666Y-112283333D01*
X135700000Y-112216666D01*
X135666666Y-112150000D01*
X135633333Y-112016666D01*
X135633333Y-111916666D01*
X135666666Y-111783333D01*
X135700000Y-111716666D01*
X135766666Y-111650000D01*
X135866666Y-111616666D01*
X135933333Y-111616666D01*
X136033333Y-111650000D01*
X136066666Y-111683333D01*
X136566666Y-111616666D02*
X136566666Y-112116666D01*
X136533333Y-112216666D01*
X136466666Y-112283333D01*
X136366666Y-112316666D01*
X136300000Y-112316666D01*
X137233333Y-112316666D02*
X136900000Y-112316666D01*
X136900000Y-111616666D01*
X137866666Y-112250000D02*
X137833333Y-112283333D01*
X137733333Y-112316666D01*
X137666666Y-112316666D01*
X137566666Y-112283333D01*
X137500000Y-112216666D01*
X137466666Y-112150000D01*
X137433333Y-112016666D01*
X137433333Y-111916666D01*
X137466666Y-111783333D01*
X137500000Y-111716666D01*
X137566666Y-111650000D01*
X137666666Y-111616666D01*
X137733333Y-111616666D01*
X137833333Y-111650000D01*
X137866666Y-111683333D01*
X138366666Y-111616666D02*
X138366666Y-112116666D01*
X138333333Y-112216666D01*
X138266666Y-112283333D01*
X138166666Y-112316666D01*
X138100000Y-112316666D01*
X139033333Y-112316666D02*
X138700000Y-112316666D01*
X138700000Y-111616666D01*
X139666666Y-112250000D02*
X139633333Y-112283333D01*
X139533333Y-112316666D01*
X139466666Y-112316666D01*
X139366666Y-112283333D01*
X139300000Y-112216666D01*
X139266666Y-112150000D01*
X139233333Y-112016666D01*
X139233333Y-111916666D01*
X139266666Y-111783333D01*
X139300000Y-111716666D01*
X139366666Y-111650000D01*
X139466666Y-111616666D01*
X139533333Y-111616666D01*
X139633333Y-111650000D01*
X139666666Y-111683333D01*
X140166666Y-111616666D02*
X140166666Y-112116666D01*
X140133333Y-112216666D01*
X140066666Y-112283333D01*
X139966666Y-112316666D01*
X139900000Y-112316666D01*
X140833333Y-112316666D02*
X140500000Y-112316666D01*
X140500000Y-111616666D01*
X141466666Y-112250000D02*
X141433333Y-112283333D01*
X141333333Y-112316666D01*
X141266666Y-112316666D01*
X141166666Y-112283333D01*
X141100000Y-112216666D01*
X141066666Y-112150000D01*
X141033333Y-112016666D01*
X141033333Y-111916666D01*
X141066666Y-111783333D01*
X141100000Y-111716666D01*
X141166666Y-111650000D01*
X141266666Y-111616666D01*
X141333333Y-111616666D01*
X141433333Y-111650000D01*
X141466666Y-111683333D01*
D11*
X133271428Y-104364285D02*
X133271428Y-105564285D01*
X132500000Y-104364285D02*
X132500000Y-105307142D01*
X132585714Y-105478571D01*
X132757142Y-105564285D01*
X133014285Y-105564285D01*
X133185714Y-105478571D01*
X133271428Y-105392857D01*
X134042857Y-105478571D02*
X134214285Y-105564285D01*
X134557142Y-105564285D01*
X134728571Y-105478571D01*
X134814285Y-105307142D01*
X134814285Y-105221428D01*
X134728571Y-105050000D01*
X134557142Y-104964285D01*
X134300000Y-104964285D01*
X134128571Y-104878571D01*
X134042857Y-104707142D01*
X134042857Y-104621428D01*
X134128571Y-104450000D01*
X134300000Y-104364285D01*
X134557142Y-104364285D01*
X134728571Y-104450000D01*
X135585714Y-105564285D02*
X135585714Y-103764285D01*
X135585714Y-104450000D02*
X135757142Y-104364285D01*
X136100000Y-104364285D01*
X136271428Y-104450000D01*
X136357142Y-104535714D01*
X136442857Y-104707142D01*
X136442857Y-105221428D01*
X136357142Y-105392857D01*
X136271428Y-105478571D01*
X136100000Y-105564285D01*
X135757142Y-105564285D01*
X135585714Y-105478571D01*
X137985714Y-105564285D02*
X137985714Y-104621428D01*
X137900000Y-104450000D01*
X137728571Y-104364285D01*
X137385714Y-104364285D01*
X137214285Y-104450000D01*
X137985714Y-105478571D02*
X137814285Y-105564285D01*
X137385714Y-105564285D01*
X137214285Y-105478571D01*
X137128571Y-105307142D01*
X137128571Y-105135714D01*
X137214285Y-104964285D01*
X137385714Y-104878571D01*
X137814285Y-104878571D01*
X137985714Y-104792857D01*
X138842857Y-104364285D02*
X138842857Y-105564285D01*
X138842857Y-104535714D02*
X138928571Y-104450000D01*
X139100000Y-104364285D01*
X139357142Y-104364285D01*
X139528571Y-104450000D01*
X139614285Y-104621428D01*
X139614285Y-105564285D01*
X141242857Y-105564285D02*
X141242857Y-104621428D01*
X141157142Y-104450000D01*
X140985714Y-104364285D01*
X140642857Y-104364285D01*
X140471428Y-104450000D01*
X141242857Y-105478571D02*
X141071428Y-105564285D01*
X140642857Y-105564285D01*
X140471428Y-105478571D01*
X140385714Y-105307142D01*
X140385714Y-105135714D01*
X140471428Y-104964285D01*
X140642857Y-104878571D01*
X141071428Y-104878571D01*
X141242857Y-104792857D01*
X142100000Y-104364285D02*
X142100000Y-105564285D01*
X142100000Y-104535714D02*
X142185714Y-104450000D01*
X142357142Y-104364285D01*
X142614285Y-104364285D01*
X142785714Y-104450000D01*
X142871428Y-104621428D01*
X142871428Y-105564285D01*
X144500000Y-105564285D02*
X144500000Y-104621428D01*
X144414285Y-104450000D01*
X144242857Y-104364285D01*
X143900000Y-104364285D01*
X143728571Y-104450000D01*
X144500000Y-105478571D02*
X144328571Y-105564285D01*
X143900000Y-105564285D01*
X143728571Y-105478571D01*
X143642857Y-105307142D01*
X143642857Y-105135714D01*
X143728571Y-104964285D01*
X143900000Y-104878571D01*
X144328571Y-104878571D01*
X144500000Y-104792857D01*
D12*
X150710000Y-109070000D02*
X150527343Y-109094033D01*
X150527343Y-109094033D02*
X150353097Y-109151114D01*
X150353097Y-109151114D02*
X150206780Y-109234847D01*
X150206780Y-109234847D02*
X150074305Y-109362419D01*
X150074305Y-109362419D02*
X149974132Y-109543057D01*
X149974132Y-109543057D02*
X149931304Y-109718912D01*
X149931304Y-109718912D02*
X149922460Y-109857540D01*
X149922460Y-109857540D02*
X149922460Y-113480000D01*
X150710000Y-114267560D02*
X154332470Y-114267560D01*
X155120010Y-109857540D02*
X155095976Y-109674883D01*
X155095976Y-109674883D02*
X155038895Y-109500637D01*
X155038895Y-109500637D02*
X154955162Y-109354320D01*
X154955162Y-109354320D02*
X154827590Y-109221845D01*
X154827590Y-109221845D02*
X154646952Y-109121672D01*
X154646952Y-109121672D02*
X154471097Y-109078844D01*
X154471097Y-109078844D02*
X154332470Y-109070000D01*
X154332470Y-114267560D02*
X154515126Y-114243525D01*
X154515126Y-114243525D02*
X154689372Y-114186443D01*
X154689372Y-114186443D02*
X154835689Y-114102707D01*
X154835689Y-114102707D02*
X154968164Y-113975133D01*
X154968164Y-113975133D02*
X155068337Y-113794490D01*
X155068337Y-113794490D02*
X155111165Y-113618630D01*
X155111165Y-113618630D02*
X155120010Y-113480000D01*
X155120010Y-113480000D02*
X155120010Y-109857540D01*
X154332470Y-109070000D02*
X150710000Y-109070000D01*
X150796270Y-108180610D02*
X150790000Y-109060000D01*
X153580000Y-108190000D02*
X153580000Y-109060000D01*
X152188780Y-108180610D02*
X152188780Y-109070000D01*
X156024680Y-109879060D02*
X155127030Y-109879060D01*
X156024680Y-112663931D02*
X155127030Y-112663931D01*
X154277470Y-108180610D02*
X154277470Y-109060000D01*
X156024680Y-111967750D02*
X155127030Y-111967750D01*
X149920000Y-109879060D02*
X148984564Y-109879060D01*
X152884950Y-108180610D02*
X152884950Y-109070000D01*
X149920000Y-110575230D02*
X148984564Y-110575230D01*
X149922460Y-113480000D02*
X149946493Y-113662661D01*
X149946493Y-113662661D02*
X150003574Y-113836911D01*
X150003574Y-113836911D02*
X150087307Y-113983232D01*
X150087307Y-113983232D02*
X150214879Y-114115710D01*
X150214879Y-114115710D02*
X150395517Y-114215885D01*
X150395517Y-114215885D02*
X150571372Y-114258715D01*
X150571372Y-114258715D02*
X150710000Y-114267560D01*
X156024680Y-113360250D02*
X155127030Y-113360250D01*
X156024680Y-110575230D02*
X155127030Y-110575230D01*
X156024680Y-111271410D02*
X155127030Y-111271410D01*
X149920000Y-113360250D02*
X148984564Y-113360250D01*
X149920000Y-112663931D02*
X148984564Y-112663931D01*
X151492590Y-108180610D02*
X151492590Y-109070000D01*
X152008550Y-110929390D02*
X151851472Y-110965117D01*
X151851472Y-110965117D02*
X151728972Y-111061234D01*
X151728972Y-111061234D02*
X151657645Y-111201146D01*
X151657645Y-111201146D02*
X151646239Y-111291690D01*
X152008550Y-111653960D02*
X152165512Y-111618240D01*
X152165512Y-111618240D02*
X152287955Y-111522137D01*
X152287955Y-111522137D02*
X152359264Y-111382234D01*
X152359264Y-111382234D02*
X152370670Y-111291690D01*
X152188780Y-114268380D02*
X152188780Y-115166172D01*
X153835550Y-112326600D02*
X153992554Y-112288777D01*
X153992554Y-112288777D02*
X154115054Y-112187028D01*
X154115054Y-112187028D02*
X154186406Y-112038932D01*
X154186406Y-112038932D02*
X154197820Y-111943100D01*
X150638210Y-111023930D02*
X150638210Y-110362470D01*
X152370670Y-111291690D02*
X152336917Y-111138723D01*
X152336917Y-111138723D02*
X152279870Y-111051770D01*
X151646239Y-111291690D02*
X151681966Y-111448759D01*
X151681966Y-111448759D02*
X151778086Y-111571242D01*
X151778086Y-111571242D02*
X151918002Y-111642556D01*
X151918002Y-111642556D02*
X152008550Y-111653960D01*
X153855230Y-112339551D02*
X153855230Y-112969440D01*
X153835550Y-111559450D02*
X153678474Y-111597270D01*
X153678474Y-111597270D02*
X153555979Y-111699035D01*
X153555979Y-111699035D02*
X153484655Y-111847197D01*
X153484655Y-111847197D02*
X153473250Y-111943100D01*
X154170000Y-113290000D02*
X154170000Y-114240000D01*
X153855230Y-112969440D02*
X154170000Y-113290000D01*
X153158210Y-109921500D02*
X152260000Y-111040000D01*
X152406800Y-112808210D02*
X152249812Y-112846054D01*
X152249812Y-112846054D02*
X152127357Y-112947853D01*
X152127357Y-112947853D02*
X152056045Y-113096004D01*
X152056045Y-113096004D02*
X152044640Y-113191860D01*
X152884950Y-114268380D02*
X152884950Y-115166172D01*
X152811790Y-111433470D02*
X152811790Y-112189480D01*
X153977190Y-109070000D02*
X153977190Y-110929390D01*
X152406800Y-113575370D02*
X152563851Y-113537550D01*
X152563851Y-113537550D02*
X152686339Y-113435805D01*
X152686339Y-113435805D02*
X152757663Y-113287702D01*
X152757663Y-113287702D02*
X152769070Y-113191860D01*
X152406800Y-113575370D02*
X152406800Y-113575370D01*
X153473250Y-111943100D02*
X153508975Y-112109349D01*
X153508975Y-112109349D02*
X153605090Y-112239017D01*
X153605090Y-112239017D02*
X153745003Y-112314524D01*
X153745003Y-112314524D02*
X153835550Y-112326600D01*
X151142290Y-113228920D02*
X150858700Y-113510000D01*
X150860000Y-113510000D02*
X149920000Y-113510000D01*
X151492590Y-114268380D02*
X151492590Y-115166172D01*
X150638210Y-110362470D02*
X151430000Y-110362470D01*
X151430000Y-110362470D02*
X151430000Y-109070000D01*
X149920000Y-111970000D02*
X148984564Y-111967750D01*
X152279870Y-111051770D02*
X152151060Y-110958597D01*
X152151060Y-110958597D02*
X152008550Y-110929390D01*
X153977190Y-110929390D02*
X153315730Y-110929390D01*
X153581300Y-114268380D02*
X153581300Y-115166172D01*
X152811790Y-112189480D02*
X149945190Y-112189480D01*
X153835550Y-112326600D02*
X153835550Y-112326600D01*
X152040000Y-113230000D02*
X151142290Y-113228920D01*
X149920000Y-111271410D02*
X148984564Y-111271410D01*
X154197820Y-111943100D02*
X154162074Y-111776743D01*
X154162074Y-111776743D02*
X154065934Y-111647035D01*
X154065934Y-111647035D02*
X153926044Y-111571524D01*
X153926044Y-111571524D02*
X153835550Y-111559450D01*
X152044640Y-113191860D02*
X152080362Y-113358124D01*
X152080362Y-113358124D02*
X152176455Y-113487792D01*
X152176455Y-113487792D02*
X152316309Y-113563295D01*
X152316309Y-113563295D02*
X152406800Y-113575370D01*
X152769070Y-113191860D02*
X152733343Y-113025564D01*
X152733343Y-113025564D02*
X152637230Y-112895840D01*
X152637230Y-112895840D02*
X152497331Y-112820292D01*
X152497331Y-112820292D02*
X152406800Y-112808210D01*
X154277470Y-114268380D02*
X154277470Y-115166172D01*
X150796270Y-114268380D02*
X150796270Y-115166172D01*
X152008550Y-111653960D02*
X152008550Y-111653960D01*
X153158210Y-109070950D02*
X153158210Y-109921500D01*
X149945190Y-111023930D02*
X150638210Y-111023930D01*
X153315730Y-110929390D02*
X152811790Y-111433470D01*
D13*
X135230000Y-99630000D02*
X135230000Y-102370000D01*
X135230000Y-102370000D02*
X141770000Y-102370000D01*
X141770000Y-102370000D02*
X141770000Y-99630000D01*
X141770000Y-99630000D02*
X135230000Y-99630000D01*
X134460000Y-101000000D02*
X135230000Y-101000000D01*
X142540000Y-101000000D02*
X141770000Y-101000000D01*
X145200000Y-114900000D02*
X140250000Y-114900000D01*
X145200000Y-114900000D02*
X145200000Y-112300000D01*
X131800000Y-114900000D02*
X131800000Y-112300000D01*
X131800000Y-114900000D02*
X136750000Y-114900000D01*
X131800000Y-108900000D02*
X145200000Y-108900000D01*
X137897936Y-100090000D02*
X139102064Y-100090000D01*
X137897936Y-101910000D02*
X139102064Y-101910000D01*
D14*
X149214285Y-87571428D02*
X149976190Y-87571428D01*
X149595238Y-87952380D02*
X149595238Y-87190476D01*
X150928571Y-86952380D02*
X150452380Y-86952380D01*
X150404761Y-87428571D01*
X150452380Y-87380952D01*
X150547619Y-87333333D01*
X150785714Y-87333333D01*
X150880952Y-87380952D01*
X150928571Y-87428571D01*
X150976190Y-87523809D01*
X150976190Y-87761904D01*
X150928571Y-87857142D01*
X150880952Y-87904761D01*
X150785714Y-87952380D01*
X150547619Y-87952380D01*
X150452380Y-87904761D01*
X150404761Y-87857142D01*
X151261904Y-86952380D02*
X151595238Y-87952380D01*
X151928571Y-86952380D01*
%LPC*%
D15*
X150500000Y-94000000D03*
D16*
X126500000Y-94000000D03*
D17*
X143580000Y-101000000D03*
D18*
X133420000Y-101000000D03*
D19*
X138500000Y-114780000D03*
D20*
X131930000Y-110600000D03*
X145070000Y-110600000D03*
D21*
X135000000Y-110000000D03*
X137500000Y-110000000D03*
X139500000Y-110000000D03*
D22*
X142000000Y-110000000D03*
G36*
G01*
X139275000Y-101625000D02*
X139275000Y-100375000D01*
G75*
G02*
X139525000Y-100125000I250000J0D01*
G01*
X140450000Y-100125000D01*
G75*
G02*
X140700000Y-100375000I0J-250000D01*
G01*
X140700000Y-101625000D01*
G75*
G02*
X140450000Y-101875000I-250000J0D01*
G01*
X139525000Y-101875000D01*
G75*
G02*
X139275000Y-101625000I0J250000D01*
G01*
G37*
G36*
G01*
X136300000Y-101625000D02*
X136300000Y-100375000D01*
G75*
G02*
X136550000Y-100125000I250000J0D01*
G01*
X137475000Y-100125000D01*
G75*
G02*
X137725000Y-100375000I0J-250000D01*
G01*
X137725000Y-101625000D01*
G75*
G02*
X137475000Y-101875000I-250000J0D01*
G01*
X136550000Y-101875000D01*
G75*
G02*
X136300000Y-101625000I0J250000D01*
G01*
G37*
M02*
