G04 #@! TF.GenerationSoftware,KiCad,Pcbnew,(5.1.6)-1*
G04 #@! TF.CreationDate,2020-08-24T22:25:31-04:00*
G04 #@! TF.ProjectId,usbanana,75736261-6e61-46e6-912e-6b696361645f,1*
G04 #@! TF.SameCoordinates,Original*
G04 #@! TF.FileFunction,Soldermask,Top*
G04 #@! TF.FilePolarity,Negative*
%FSLAX46Y46*%
G04 Gerber Fmt 4.6, Leading zero omitted, Abs format (unit mm)*
G04 Created by KiCad (PCBNEW (5.1.6)-1) date 2020-08-24 22:25:31*
%MOMM*%
%LPD*%
G01*
G04 APERTURE LIST*
%ADD10C,0.152400*%
G04 APERTURE END LIST*
D10*
G36*
X139186232Y-113843746D02*
G01*
X139365308Y-113898068D01*
X139530345Y-113986282D01*
X139675001Y-114104999D01*
X139793718Y-114249655D01*
X139881932Y-114414692D01*
X139936254Y-114593768D01*
X139954596Y-114780000D01*
X139936254Y-114966232D01*
X139881932Y-115145308D01*
X139793718Y-115310345D01*
X139675001Y-115455001D01*
X139530345Y-115573718D01*
X139365308Y-115661932D01*
X139186232Y-115716254D01*
X139046665Y-115730000D01*
X137953335Y-115730000D01*
X137813768Y-115716254D01*
X137634692Y-115661932D01*
X137469655Y-115573718D01*
X137324999Y-115455001D01*
X137206282Y-115310345D01*
X137118068Y-115145308D01*
X137063746Y-114966232D01*
X137045404Y-114780000D01*
X137063746Y-114593768D01*
X137118068Y-114414692D01*
X137206282Y-114249655D01*
X137324999Y-114104999D01*
X137469655Y-113986282D01*
X137634692Y-113898068D01*
X137813768Y-113843746D01*
X137953335Y-113830000D01*
X139046665Y-113830000D01*
X139186232Y-113843746D01*
G37*
G36*
X132116232Y-109163746D02*
G01*
X132295308Y-109218068D01*
X132460345Y-109306282D01*
X132605001Y-109424999D01*
X132723718Y-109569655D01*
X132811932Y-109734692D01*
X132866254Y-109913768D01*
X132880000Y-110053335D01*
X132880000Y-111146665D01*
X132866254Y-111286232D01*
X132811932Y-111465308D01*
X132723718Y-111630345D01*
X132605001Y-111775001D01*
X132460345Y-111893718D01*
X132295307Y-111981932D01*
X132116231Y-112036254D01*
X131930000Y-112054596D01*
X131743768Y-112036254D01*
X131564692Y-111981932D01*
X131399655Y-111893718D01*
X131254999Y-111775001D01*
X131136282Y-111630345D01*
X131048068Y-111465307D01*
X130993746Y-111286231D01*
X130980000Y-111146664D01*
X130980001Y-110053335D01*
X130993747Y-109913768D01*
X131048069Y-109734692D01*
X131136283Y-109569655D01*
X131255000Y-109424999D01*
X131399656Y-109306282D01*
X131564693Y-109218068D01*
X131743769Y-109163746D01*
X131930000Y-109145404D01*
X132116232Y-109163746D01*
G37*
G36*
X145256231Y-109163746D02*
G01*
X145435307Y-109218068D01*
X145600345Y-109306282D01*
X145745001Y-109424999D01*
X145863718Y-109569655D01*
X145951932Y-109734692D01*
X146006254Y-109913768D01*
X146020000Y-110053335D01*
X146020000Y-111146665D01*
X146006254Y-111286232D01*
X145951932Y-111465308D01*
X145863718Y-111630345D01*
X145745001Y-111775001D01*
X145600345Y-111893718D01*
X145435308Y-111981932D01*
X145256232Y-112036254D01*
X145070000Y-112054596D01*
X144883769Y-112036254D01*
X144704693Y-111981932D01*
X144539656Y-111893718D01*
X144395000Y-111775001D01*
X144276283Y-111630345D01*
X144188069Y-111465308D01*
X144133747Y-111286232D01*
X144120001Y-111146665D01*
X144120000Y-110053336D01*
X144133746Y-109913769D01*
X144188068Y-109734693D01*
X144276282Y-109569655D01*
X144394999Y-109424999D01*
X144539655Y-109306282D01*
X144704692Y-109218068D01*
X144883768Y-109163746D01*
X145070000Y-109145404D01*
X145256231Y-109163746D01*
G37*
G36*
X142650000Y-110650000D02*
G01*
X141350000Y-110650000D01*
X141350000Y-109350000D01*
X142650000Y-109350000D01*
X142650000Y-110650000D01*
G37*
G36*
X139605879Y-109358326D02*
G01*
X139689598Y-109374979D01*
X139748744Y-109399479D01*
X139807892Y-109423978D01*
X139892943Y-109480808D01*
X139914351Y-109495112D01*
X140004888Y-109585649D01*
X140004889Y-109585651D01*
X140076022Y-109692108D01*
X140093661Y-109734693D01*
X140125021Y-109810402D01*
X140150000Y-109935981D01*
X140150000Y-110064019D01*
X140125021Y-110189598D01*
X140100521Y-110248744D01*
X140076022Y-110307892D01*
X140019192Y-110392943D01*
X140004888Y-110414351D01*
X139914351Y-110504888D01*
X139892943Y-110519192D01*
X139807892Y-110576022D01*
X139748744Y-110600522D01*
X139689598Y-110625021D01*
X139605879Y-110641674D01*
X139564020Y-110650000D01*
X139435980Y-110650000D01*
X139394121Y-110641674D01*
X139310402Y-110625021D01*
X139251256Y-110600522D01*
X139192108Y-110576022D01*
X139107057Y-110519192D01*
X139085649Y-110504888D01*
X138995112Y-110414351D01*
X138980808Y-110392943D01*
X138923978Y-110307892D01*
X138899479Y-110248744D01*
X138874979Y-110189598D01*
X138850000Y-110064019D01*
X138850000Y-109935981D01*
X138874979Y-109810402D01*
X138906339Y-109734693D01*
X138923978Y-109692108D01*
X138995111Y-109585651D01*
X138995112Y-109585649D01*
X139085649Y-109495112D01*
X139107057Y-109480808D01*
X139192108Y-109423978D01*
X139251256Y-109399478D01*
X139310402Y-109374979D01*
X139394121Y-109358326D01*
X139435980Y-109350000D01*
X139564020Y-109350000D01*
X139605879Y-109358326D01*
G37*
G36*
X137605879Y-109358326D02*
G01*
X137689598Y-109374979D01*
X137748744Y-109399479D01*
X137807892Y-109423978D01*
X137892943Y-109480808D01*
X137914351Y-109495112D01*
X138004888Y-109585649D01*
X138004889Y-109585651D01*
X138076022Y-109692108D01*
X138093661Y-109734693D01*
X138125021Y-109810402D01*
X138150000Y-109935981D01*
X138150000Y-110064019D01*
X138125021Y-110189598D01*
X138100521Y-110248744D01*
X138076022Y-110307892D01*
X138019192Y-110392943D01*
X138004888Y-110414351D01*
X137914351Y-110504888D01*
X137892943Y-110519192D01*
X137807892Y-110576022D01*
X137748744Y-110600522D01*
X137689598Y-110625021D01*
X137605879Y-110641674D01*
X137564020Y-110650000D01*
X137435980Y-110650000D01*
X137394121Y-110641674D01*
X137310402Y-110625021D01*
X137251256Y-110600522D01*
X137192108Y-110576022D01*
X137107057Y-110519192D01*
X137085649Y-110504888D01*
X136995112Y-110414351D01*
X136980808Y-110392943D01*
X136923978Y-110307892D01*
X136899479Y-110248744D01*
X136874979Y-110189598D01*
X136850000Y-110064019D01*
X136850000Y-109935981D01*
X136874979Y-109810402D01*
X136906339Y-109734693D01*
X136923978Y-109692108D01*
X136995111Y-109585651D01*
X136995112Y-109585649D01*
X137085649Y-109495112D01*
X137107057Y-109480808D01*
X137192108Y-109423978D01*
X137251256Y-109399478D01*
X137310402Y-109374979D01*
X137394121Y-109358326D01*
X137435980Y-109350000D01*
X137564020Y-109350000D01*
X137605879Y-109358326D01*
G37*
G36*
X135105879Y-109358326D02*
G01*
X135189598Y-109374979D01*
X135248744Y-109399479D01*
X135307892Y-109423978D01*
X135392943Y-109480808D01*
X135414351Y-109495112D01*
X135504888Y-109585649D01*
X135504889Y-109585651D01*
X135576022Y-109692108D01*
X135593661Y-109734693D01*
X135625021Y-109810402D01*
X135650000Y-109935981D01*
X135650000Y-110064019D01*
X135625021Y-110189598D01*
X135600521Y-110248744D01*
X135576022Y-110307892D01*
X135519192Y-110392943D01*
X135504888Y-110414351D01*
X135414351Y-110504888D01*
X135392943Y-110519192D01*
X135307892Y-110576022D01*
X135248744Y-110600522D01*
X135189598Y-110625021D01*
X135105879Y-110641674D01*
X135064020Y-110650000D01*
X134935980Y-110650000D01*
X134894121Y-110641674D01*
X134810402Y-110625021D01*
X134751256Y-110600522D01*
X134692108Y-110576022D01*
X134607057Y-110519192D01*
X134585649Y-110504888D01*
X134495112Y-110414351D01*
X134480808Y-110392943D01*
X134423978Y-110307892D01*
X134399479Y-110248744D01*
X134374979Y-110189598D01*
X134350000Y-110064019D01*
X134350000Y-109935981D01*
X134374979Y-109810402D01*
X134406339Y-109734693D01*
X134423978Y-109692108D01*
X134495111Y-109585651D01*
X134495112Y-109585649D01*
X134585649Y-109495112D01*
X134607057Y-109480808D01*
X134692108Y-109423978D01*
X134751256Y-109399478D01*
X134810402Y-109374979D01*
X134894121Y-109358326D01*
X134935980Y-109350000D01*
X135064020Y-109350000D01*
X135105879Y-109358326D01*
G37*
G36*
X137555065Y-100129340D02*
G01*
X137594600Y-100141333D01*
X137631041Y-100160811D01*
X137662979Y-100187021D01*
X137689189Y-100218959D01*
X137708667Y-100255400D01*
X137720660Y-100294935D01*
X137725000Y-100339000D01*
X137725000Y-101661000D01*
X137720660Y-101705065D01*
X137708667Y-101744600D01*
X137689189Y-101781041D01*
X137662979Y-101812979D01*
X137631041Y-101839189D01*
X137594600Y-101858667D01*
X137555065Y-101870660D01*
X137511000Y-101875000D01*
X136514000Y-101875000D01*
X136469935Y-101870660D01*
X136430400Y-101858667D01*
X136393959Y-101839189D01*
X136362021Y-101812979D01*
X136335811Y-101781041D01*
X136316333Y-101744600D01*
X136304340Y-101705065D01*
X136300000Y-101661000D01*
X136300000Y-100339000D01*
X136304340Y-100294935D01*
X136316333Y-100255400D01*
X136335811Y-100218959D01*
X136362021Y-100187021D01*
X136393959Y-100160811D01*
X136430400Y-100141333D01*
X136469935Y-100129340D01*
X136514000Y-100125000D01*
X137511000Y-100125000D01*
X137555065Y-100129340D01*
G37*
G36*
X140530065Y-100129340D02*
G01*
X140569600Y-100141333D01*
X140606041Y-100160811D01*
X140637979Y-100187021D01*
X140664189Y-100218959D01*
X140683667Y-100255400D01*
X140695660Y-100294935D01*
X140700000Y-100339000D01*
X140700000Y-101661000D01*
X140695660Y-101705065D01*
X140683667Y-101744600D01*
X140664189Y-101781041D01*
X140637979Y-101812979D01*
X140606041Y-101839189D01*
X140569600Y-101858667D01*
X140530065Y-101870660D01*
X140486000Y-101875000D01*
X139489000Y-101875000D01*
X139444935Y-101870660D01*
X139405400Y-101858667D01*
X139368959Y-101839189D01*
X139337021Y-101812979D01*
X139310811Y-101781041D01*
X139291333Y-101744600D01*
X139279340Y-101705065D01*
X139275000Y-101661000D01*
X139275000Y-100339000D01*
X139279340Y-100294935D01*
X139291333Y-100255400D01*
X139310811Y-100218959D01*
X139337021Y-100187021D01*
X139368959Y-100160811D01*
X139405400Y-100141333D01*
X139444935Y-100129340D01*
X139489000Y-100125000D01*
X140486000Y-100125000D01*
X140530065Y-100129340D01*
G37*
G36*
X133550312Y-100210248D02*
G01*
X133653351Y-100230743D01*
X133798942Y-100291049D01*
X133929970Y-100378599D01*
X134041401Y-100490030D01*
X134128951Y-100621058D01*
X134189257Y-100766649D01*
X134220000Y-100921207D01*
X134220000Y-101078793D01*
X134189257Y-101233351D01*
X134128951Y-101378942D01*
X134041401Y-101509970D01*
X133929970Y-101621401D01*
X133798942Y-101708951D01*
X133653351Y-101769257D01*
X133550312Y-101789752D01*
X133498794Y-101800000D01*
X133341206Y-101800000D01*
X133289688Y-101789752D01*
X133186649Y-101769257D01*
X133041058Y-101708951D01*
X132910030Y-101621401D01*
X132798599Y-101509970D01*
X132711049Y-101378942D01*
X132650743Y-101233351D01*
X132620000Y-101078793D01*
X132620000Y-100921207D01*
X132650743Y-100766649D01*
X132711049Y-100621058D01*
X132798599Y-100490030D01*
X132910030Y-100378599D01*
X133041058Y-100291049D01*
X133186649Y-100230743D01*
X133289688Y-100210248D01*
X133341206Y-100200000D01*
X133498794Y-100200000D01*
X133550312Y-100210248D01*
G37*
G36*
X143710312Y-100210248D02*
G01*
X143813351Y-100230743D01*
X143958942Y-100291049D01*
X144089970Y-100378599D01*
X144201401Y-100490030D01*
X144288951Y-100621058D01*
X144349257Y-100766649D01*
X144380000Y-100921207D01*
X144380000Y-101078793D01*
X144349257Y-101233351D01*
X144288951Y-101378942D01*
X144201401Y-101509970D01*
X144089970Y-101621401D01*
X143958942Y-101708951D01*
X143813351Y-101769257D01*
X143710312Y-101789752D01*
X143658794Y-101800000D01*
X143501206Y-101800000D01*
X143449688Y-101789752D01*
X143346649Y-101769257D01*
X143201058Y-101708951D01*
X143070030Y-101621401D01*
X142958599Y-101509970D01*
X142871049Y-101378942D01*
X142810743Y-101233351D01*
X142780000Y-101078793D01*
X142780000Y-100921207D01*
X142810743Y-100766649D01*
X142871049Y-100621058D01*
X142958599Y-100490030D01*
X143070030Y-100378599D01*
X143201058Y-100291049D01*
X143346649Y-100230743D01*
X143449688Y-100210248D01*
X143501206Y-100200000D01*
X143658794Y-100200000D01*
X143710312Y-100210248D01*
G37*
G36*
X127070117Y-90544834D02*
G01*
X127520912Y-90634503D01*
X128157872Y-90898340D01*
X128157874Y-90898341D01*
X128423421Y-91075774D01*
X128731120Y-91281372D01*
X129218628Y-91768880D01*
X129601660Y-92342128D01*
X129865497Y-92979088D01*
X130000000Y-93655280D01*
X130000000Y-94344720D01*
X129865497Y-95020912D01*
X129601660Y-95657872D01*
X129218628Y-96231120D01*
X128731120Y-96718628D01*
X128444496Y-96910144D01*
X128157874Y-97101659D01*
X128157873Y-97101660D01*
X128157872Y-97101660D01*
X127520912Y-97365497D01*
X127099314Y-97449358D01*
X126844721Y-97500000D01*
X126155279Y-97500000D01*
X125900686Y-97449358D01*
X125479088Y-97365497D01*
X124842128Y-97101660D01*
X124842127Y-97101660D01*
X124842126Y-97101659D01*
X124555504Y-96910144D01*
X124268880Y-96718628D01*
X123781372Y-96231120D01*
X123398340Y-95657872D01*
X123134503Y-95020912D01*
X123000000Y-94344720D01*
X123000000Y-93655280D01*
X123134503Y-92979088D01*
X123398340Y-92342128D01*
X123781372Y-91768880D01*
X124268880Y-91281372D01*
X124576579Y-91075774D01*
X124842126Y-90898341D01*
X124842128Y-90898340D01*
X125479088Y-90634503D01*
X125929883Y-90544834D01*
X126155279Y-90500000D01*
X126844721Y-90500000D01*
X127070117Y-90544834D01*
G37*
G36*
X155479032Y-90525321D02*
G01*
X155736122Y-90550642D01*
X156395873Y-90750776D01*
X157003904Y-91075775D01*
X157536849Y-91513151D01*
X157974225Y-92046096D01*
X158132456Y-92342126D01*
X158299224Y-92654127D01*
X158499358Y-93313878D01*
X158566935Y-94000000D01*
X158499358Y-94686122D01*
X158397801Y-95020910D01*
X158299224Y-95345873D01*
X157974225Y-95953904D01*
X157536849Y-96486849D01*
X157003904Y-96924225D01*
X156671946Y-97101660D01*
X156395873Y-97249224D01*
X155736122Y-97449358D01*
X155479032Y-97474679D01*
X155221944Y-97500000D01*
X145778056Y-97500000D01*
X145520968Y-97474679D01*
X145263878Y-97449358D01*
X144604127Y-97249224D01*
X144328054Y-97101660D01*
X143996096Y-96924225D01*
X143463151Y-96486849D01*
X143025775Y-95953904D01*
X142700776Y-95345873D01*
X142602199Y-95020910D01*
X142500642Y-94686122D01*
X142433065Y-94000000D01*
X142500642Y-93313878D01*
X142700776Y-92654127D01*
X142867544Y-92342126D01*
X143025775Y-92046096D01*
X143463151Y-91513151D01*
X143996096Y-91075775D01*
X144604127Y-90750776D01*
X145263878Y-90550642D01*
X145520968Y-90525321D01*
X145778056Y-90500000D01*
X155221944Y-90500000D01*
X155479032Y-90525321D01*
G37*
M02*
